<?xml version="1.0" standalone="no"?>
<!DOCTYPE svg PUBLIC "-//W3C//DTD SVG 20010904//EN"
 "http://www.w3.org/TR/2001/REC-SVG-20010904/DTD/svg10.dtd">
<svg version="1.0" xmlns="http://www.w3.org/2000/svg"
 width="128.000000pt" height="128.000000pt" viewBox="0 0 128.000000 128.000000"
 preserveAspectRatio="xMidYMid meet">
<metadata>
Created by potrace 1.14, written by Peter Selinger 2001-2017
</metadata>
<g transform="translate(0.000000,128.000000) scale(0.100000,-0.100000)"
fill="#000000" stroke="none">
<path d="M945 1151 c3 -5 -1 -11 -7 -14 -7 -2 -11 -7 -8 -10 3 -3 13 0 23 8
16 11 16 13 2 19 -9 3 -14 2 -10 -3z"/>
<path d="M895 1131 c-3 -5 -2 -12 3 -15 5 -3 9 1 9 9 0 17 -3 19 -12 6z"/>
<path d="M953 1105 c2 -14 11 -35 21 -47 10 -11 14 -23 10 -27 -14 -10 -17
-44 -4 -36 9 6 9 2 0 -14 -11 -22 -37 -24 -32 -2 1 7 -3 11 -10 9 -20 -4 -79
42 -71 55 5 9 3 9 -8 0 -11 -9 -18 -8 -31 1 -10 7 -14 17 -10 21 4 5 1 5 -6 1
-8 -5 -24 1 -40 15 -22 20 -24 20 -9 3 17 -21 17 -21 -8 -17 -13 3 -22 9 -19
14 3 5 -1 6 -9 3 -8 -3 -17 2 -21 12 -5 14 -9 14 -29 2 -29 -18 -93 -18 -89 0
1 8 -2 11 -8 7 -6 -3 -8 -10 -5 -15 3 -4 -4 -10 -15 -13 -10 -3 -21 0 -24 7
-2 6 -5 3 -5 -8 -1 -16 -3 -17 -18 -5 -14 12 -16 12 -8 0 6 -11 4 -13 -9 -8
-11 5 -15 3 -10 -5 5 -7 0 -9 -14 -6 -12 4 -25 1 -29 -4 -4 -7 -1 -8 7 -3 9 5
11 4 6 -3 -4 -7 -14 -12 -22 -12 -9 0 -12 5 -8 12 4 7 3 8 -5 4 -6 -4 -9 -12
-6 -17 6 -8 -9 -13 -28 -10 -5 1 -6 -3 -2 -9 3 -5 -5 -14 -19 -20 -14 -5 -26
-12 -26 -15 0 -4 5 -3 12 1 7 5 8 3 4 -5 -5 -7 -15 -10 -23 -7 -8 3 -11 1 -8
-4 3 -6 1 -10 -4 -10 -6 0 -11 -8 -11 -17 0 -9 -3 -13 -7 -10 -6 6 -14 -6 -50
-76 -8 -15 -18 -25 -23 -22 -5 3 -12 0 -16 -6 -4 -7 -3 -9 4 -5 7 4 10 -2 9
-14 -1 -13 -6 -19 -16 -15 -11 4 -11 2 -3 -8 8 -9 9 -24 2 -45 -5 -18 -6 -32
-3 -32 3 0 0 -7 -8 -16 -9 -11 -10 -17 -1 -23 16 -10 1 -27 -30 -33 -19 -4
-25 -1 -21 9 3 7 10 10 17 6 6 -3 3 3 -7 14 -15 17 -15 22 -4 31 8 7 17 10 20
7 4 -3 5 -2 2 2 -8 10 -36 13 -30 3 3 -4 -3 -14 -12 -21 -14 -12 -15 -11 -8
11 4 14 4 22 -1 17 -10 -10 -13 -78 -3 -71 5 3 9 0 9 -6 0 -7 10 -20 22 -30
19 -15 21 -20 8 -34 -11 -15 -11 -17 1 -14 8 2 13 -3 11 -11 -3 -12 0 -12 13
-1 8 7 18 10 22 6 3 -3 1 -6 -5 -6 -7 0 -12 -5 -12 -11 0 -5 4 -8 9 -5 5 3 11
-1 14 -9 4 -10 1 -12 -11 -9 -9 2 -7 -1 6 -7 12 -7 22 -18 22 -26 0 -9 -5 -11
-12 -7 -7 4 0 -5 15 -19 15 -15 25 -32 22 -37 -3 -6 -2 -10 3 -10 6 0 13 -8
16 -17 6 -16 6 -16 -12 0 -12 11 -26 15 -37 11 -13 -5 -16 -4 -11 4 5 8 -2 12
-19 12 -15 0 -24 4 -20 10 3 6 -1 13 -9 16 -9 3 -14 10 -11 14 3 4 -3 14 -13
21 -14 11 -15 11 -5 0 6 -7 9 -20 6 -27 -3 -9 2 -14 13 -15 12 0 14 -3 6 -6
-9 -3 -2 -13 19 -29 18 -13 37 -24 42 -24 5 0 23 -10 40 -22 29 -20 30 -20 17
-3 -14 19 -14 19 9 0 13 -11 26 -19 29 -17 3 2 9 -4 12 -13 3 -9 8 -15 10 -13
9 5 50 -29 43 -35 -3 -4 3 -7 15 -7 11 0 24 -5 28 -12 5 -7 3 -8 -6 -3 -8 5
-11 4 -6 -3 4 -6 13 -9 21 -5 21 7 19 -4 -5 -29 -11 -12 -20 -19 -20 -15 0 4
-13 1 -30 -8 -19 -10 -30 -11 -30 -5 0 6 -5 8 -12 4 -6 -4 -17 1 -25 11 -7 11
-13 13 -13 6 0 -7 -5 -9 -12 -5 -7 5 -8 3 -3 -6 6 -10 4 -12 -8 -7 -24 9 -21
0 4 -14 13 -7 19 -7 15 -1 -3 6 -2 13 3 16 11 7 9 -13 -3 -33 -7 -11 -5 -13 7
-8 10 3 17 2 17 -3 0 -6 5 -10 11 -10 5 0 7 5 4 10 -3 6 -1 10 4 10 6 0 11 -4
11 -8 0 -4 11 -8 25 -8 14 0 25 3 25 8 0 4 7 5 15 2 8 -4 15 -1 15 5 0 6 3 10
8 9 4 -1 17 3 30 10 12 7 26 10 31 8 5 -3 11 1 15 9 3 8 10 15 16 15 6 0 8 -6
4 -12 -6 -10 -4 -10 7 -2 12 9 29 10 82 5 5 -1 5 -7 1 -13 -6 -10 -5 -10 7 -1
8 6 39 14 69 16 30 3 57 6 60 7 3 1 8 2 13 1 4 0 7 4 7 10 0 7 11 9 26 6 16
-3 28 0 31 9 4 11 9 12 19 3 12 -9 13 -9 8 4 -4 11 4 21 25 32 18 9 36 13 41
10 5 -3 12 0 16 6 5 8 3 9 -6 4 -8 -5 -11 -3 -8 6 3 8 12 13 19 11 8 -2 11 0
6 4 -9 9 21 44 39 44 7 0 16 5 20 12 5 7 3 8 -6 3 -9 -5 -11 -4 -6 3 4 7 16
12 27 12 10 0 19 5 19 11 0 5 -5 7 -12 3 -7 -4 -8 -3 -4 4 4 6 14 8 23 5 12
-5 14 -3 8 8 -7 11 -5 11 10 -1 17 -14 18 -13 12 2 -4 13 -2 15 10 11 10 -4
14 -2 10 4 -4 6 2 13 12 16 11 2 24 15 31 27 7 13 8 20 2 16 -6 -3 -13 -2 -17
4 -3 5 -2 10 3 10 6 0 13 8 16 17 5 13 1 12 -17 -5 -19 -18 -26 -20 -30 -10
-3 7 -4 2 -2 -12 1 -14 8 -24 14 -22 6 1 11 -2 11 -8 0 -13 -13 -13 -27 1 -8
8 -17 5 -34 -12 -17 -17 -21 -18 -16 -5 4 10 7 24 7 32 0 8 8 14 18 15 10 0
12 3 5 6 -16 6 -17 30 -3 35 6 2 12 13 13 25 0 12 4 20 7 18 3 -2 12 0 20 6
10 6 11 9 3 9 -7 0 -13 5 -13 10 0 6 6 10 13 10 7 0 18 9 25 21 8 12 9 18 3
14 -6 -3 -11 -2 -11 4 0 5 4 12 9 15 14 9 20 45 9 53 -7 3 -8 1 -4 -5 3 -6 -2
-15 -11 -21 -10 -6 -14 -11 -10 -11 4 0 3 -9 -3 -20 -6 -11 -16 -17 -22 -14
-7 4 -8 3 -4 -4 4 -7 2 -12 -3 -12 -6 0 -11 9 -11 20 0 11 6 20 13 20 8 0 8 3
-2 9 -8 5 -16 20 -18 33 -3 23 -3 23 12 -2 8 -14 14 -19 15 -12 0 6 -9 21 -20
32 -11 11 -15 20 -10 20 6 0 10 5 10 11 0 5 -4 7 -10 4 -5 -3 -10 0 -10 9 0 8
6 17 13 20 6 3 3 4 -8 3 -12 -1 -19 3 -17 12 2 7 -3 21 -11 30 -22 25 -32 45
-19 37 8 -5 10 -2 6 8 -3 9 -10 13 -15 10 -5 -3 -4 7 1 21 6 15 8 31 4 36 -3
5 1 9 8 9 9 0 9 3 -2 10 -13 9 -13 10 0 10 13 0 13 1 0 10 -11 7 -11 10 -2 10
7 0 11 4 8 8 -2 4 -7 27 -10 50 -5 52 -20 72 -53 72 -20 0 -23 -4 -20 -25z
m-253 -15 c0 -5 -8 -10 -17 -10 -15 0 -16 2 -3 10 19 12 20 12 20 0z m280 -10
c0 -5 -2 -10 -4 -10 -3 0 -8 5 -11 10 -3 6 -1 10 4 10 6 0 11 -4 11 -10z
m-836 -431 c-3 -5 -10 -7 -15 -3 -5 3 -7 10 -3 15 3 5 10 7 15 3 5 -3 7 -10 3
-15z m56 -46 c0 -10 -4 -14 -8 -8 -4 6 -11 13 -16 18 -5 4 -2 7 7 7 10 0 17
-8 17 -17z m934 -121 c3 -5 -1 -9 -9 -9 -8 0 -12 4 -9 9 3 4 7 8 9 8 2 0 6 -4
9 -8z"/>
<path d="M250 899 c0 -5 5 -7 10 -4 6 3 10 8 10 11 0 2 -4 4 -10 4 -5 0 -10
-5 -10 -11z"/>
<path d="M193 763 c4 -3 -1 -12 -11 -20 -15 -13 -15 -13 6 -3 19 9 23 30 5 30
-4 0 -3 -3 0 -7z"/>
<path d="M1148 733 c7 -3 16 -2 19 1 4 3 -2 6 -13 5 -11 0 -14 -3 -6 -6z"/>
<path d="M130 596 c0 -2 7 -7 16 -10 8 -3 12 -2 9 4 -6 10 -25 14 -25 6z"/>
<path d="M1125 539 c-4 -6 -5 -12 -2 -15 2 -3 7 2 10 11 7 17 1 20 -8 4z"/>
<path d="M970 319 c0 -5 5 -7 10 -4 6 3 10 8 10 11 0 2 -4 4 -10 4 -5 0 -10
-5 -10 -11z"/>
<path d="M335 280 c-3 -6 1 -7 9 -4 18 7 21 14 7 14 -6 0 -13 -4 -16 -10z"/>
<path d="M276 267 c3 -10 9 -15 12 -12 3 3 0 11 -7 18 -10 9 -11 8 -5 -6z"/>
<path d="M280 220 c-9 -6 -10 -10 -3 -10 6 0 15 5 18 10 8 12 4 12 -15 0z"/>
<path d="M770 180 c0 -5 5 -10 11 -10 5 0 7 5 4 10 -3 6 -8 10 -11 10 -2 0 -4
-4 -4 -10z"/>
</g>
</svg>
